Exact Audio Copy V0.99 prebeta 1 from 25. May 2007

EAC 抓取日志文件从12. 十一月 2010, 0:22

郭兰英 / 20世纪中华歌坛名人百集珍藏版

使用驱动器  ：PIONEER DVD-RW  DVR-115   Adapter: 0  ID: 0

读取模式     : 保护
使用精确流   : 是
废除音频缓冲 : 是
使用 C2 指针 : 否

读取偏移校正                   : 38
读取 Lead-In 和 Lead-Out       : 否
用静音填充抓取中丢失偏移的采样 : 是
去除首尾静音块                 : 否
已用接口                       : Win NT 及 2000 本地 Win32 接口

所用输出格式 : 内部 WAV 函数
样本格式     : 44.100 Hz;16 Bit;立体声


被抓轨 CD 的 TOC

     音轨 |   开始   |   长度   | 起始扇区 | 结尾扇区 
    --------------------------------------------------
       1  |  0:00.00 |  5:29.42 |       0  |   24716  
       2  |  5:29.42 |  3:12.65 |   24717  |   39181  
       3  |  8:42.32 |  8:06.40 |   39182  |   75671  
       4  | 16:48.72 |  3:51.43 |   75672  |   93039  
       5  | 20:40.40 |  4:21.55 |   93040  |  112669  
       6  | 25:02.20 |  4:35.35 |  112670  |  133329  
       7  | 29:37.55 |  2:15.72 |  133330  |  143526  
       8  | 31:53.52 |  3:35.20 |  143527  |  159671  
       9  | 35:28.72 |  3:38.70 |  159672  |  176091  
      10  | 39:07.67 |  6:25.18 |  176092  |  204984  
      11  | 45:33.10 |  7:07.17 |  204985  |  237026  
      12  | 52:40.27 |  5:46.63 |  237027  |  263039  


范围状态及错误

已选择范围

     文件名 E:\文件夹\20世纪中华歌坛名人百集珍藏版-郭兰英[lwg188原创]\郭兰英 - 20世纪中华歌坛名人百集珍藏版.wav

     峰值电平 97.7 %
     范围质量 100.0 %
     复制 CRC D0F75EC1
     复制成功

没有错误发生

状态报告结尾
